# xmcd CD database file
#
# Track frame offsets:
#	150
#	59728
#	99818
#	154740
#	216550
#	242623
#
# Disc length: 3880 seconds
#
# Revision: 1
# Processed by: cddbd v1.5.1PL0 Copyright (c) Steve Scherf et al.
# Submitted via: CDex 1.51
#
DISCID=4f0f2606
DTITLE=WOLFGANG AMADEUS MOZART - PIANO CONCERTOS NOS.22 and 26 "CORONATION"
DYEAR=1988
DGENRE=Classical
TTITLE0=No.22 in E flat major, K.482 - I. Allegro
TTITLE1=No.22 in E flat major, K.482 - II. Andante
TTITLE2=No.22 in E flat major, K.482 - III. Allegro
TTITLE3=No.26 in D major, K.537 "Coronation" - I. Allegro
TTITLE4=No.26 in D major, K.537 "Coronation" - II. Larghetto
TTITLE5=No.26 in D major, K.537 "Coronation" - III. Allegro
EXTD=YEAR: 1988
EXTT0=
EXTT1=
EXTT2=
EXTT3=
EXTT4=
EXTT5=
PLAYORDER=
